<svg width="100" height="28" viewBox="0 0 100 28" fill="none" xmlns="http://www.w3.org/2000/svg">
<path d="M10.902 0H0V26.0724L10.902 0Z" fill="#FA0C00"/>
<path d="M18.5724 0H29.4602V26.0724L18.5724 0Z" fill="#FA0C00"/>
<path d="M14.7372 9.60938L21.6762 26.0724H17.1236L15.0497 20.8309H9.97162L14.7372 9.60938Z" fill="#FA0C00"/>
<path d="M47.2463 16.5802L48.532 20.2663C48.5745 20.3587 48.6385 20.4013 48.7521 20.4013H51.2236C51.3587 20.4013 51.38 20.3373 51.3587 20.2023L46.2521 6.01916C46.2307 5.90553 46.2094 5.88422 46.0958 5.88422H43.0276C42.9425 5.88422 42.8927 5.94813 42.8927 6.04047C42.8501 6.7862 42.7861 7.01347 42.6938 7.23365L38.1412 20.1811C38.12 20.3373 38.1698 20.4013 38.2976 20.4013H40.5063C40.6412 20.4013 40.7052 20.3587 40.7549 20.2236L41.9694 16.5802H47.2463ZM42.6725 14.1726C43.3401 12.1555 44.2209 9.57029 44.576 8.09302H44.5972C45.0376 9.64131 46.0745 12.7095 46.5432 14.1726H42.6725Z" fill="#FA0C00"/>
<path d="M57.9235 20.6214C59.2517 20.6214 60.6649 20.38 62.0997 19.762C62.2133 19.7194 62.2346 19.6698 62.2346 19.5633C62.192 19.1654 62.1422 18.5902 62.1422 18.1498V4.79757C62.1422 4.71236 62.1422 4.66974 62.0357 4.66974H59.628C59.5357 4.66974 59.4931 4.71236 59.4931 4.82599V9.35014C59.1167 9.30752 58.8538 9.28621 58.5415 9.28621C54.6564 9.28621 52.27 11.8501 52.27 15.0533C52.27 18.7678 54.7204 20.6214 57.9235 20.6214ZM59.4931 18.1498C59.0953 18.2776 58.6551 18.3274 58.2077 18.3274C56.4462 18.3274 55.0044 17.3331 55.0044 14.9183C55.0044 12.7805 56.4887 11.5163 58.4562 11.5163C58.8538 11.5163 59.2018 11.5589 59.4931 11.6726V18.1498Z" fill="#FA0C00"/>
<path d="M69.9157 9.28619C66.5989 9.28619 64.5464 11.8288 64.5464 14.968C64.5464 17.7734 66.1798 20.6214 69.866 20.6214C72.9838 20.6214 75.1713 18.3274 75.1713 14.897C75.1713 11.8714 73.3177 9.28619 69.9157 9.28619ZM69.7807 11.5163C71.6557 11.5163 72.4511 13.1285 72.4511 14.968C72.4511 17.2407 71.2793 18.37 69.9157 18.37C68.2324 18.37 67.2382 16.9566 67.2382 14.9183C67.2382 12.8231 68.2964 11.5163 69.7807 11.5163Z" fill="#FA0C00"/>
<path d="M77.6608 4.66974C77.5684 4.66974 77.5044 4.71236 77.5044 4.82599V19.9396C77.5044 20.0036 77.5684 20.1173 77.6608 20.1385C78.7189 20.4653 79.8269 20.6214 80.9704 20.6214C84.2446 20.6214 87.4264 18.5902 87.4264 14.4993C87.4264 11.5376 85.3951 9.28621 82.2133 9.28621C81.4817 9.28621 80.7999 9.39985 80.2033 9.59872L80.1749 4.8473C80.1749 4.69105 80.1324 4.66974 79.976 4.66974H77.6608ZM84.7062 14.7692C84.7062 17.2194 83.03 18.37 81.2189 18.37C80.8426 18.37 80.5088 18.3487 80.2033 18.2564V11.8075C80.5513 11.6726 80.9704 11.5589 81.7446 11.5589C83.4917 11.5589 84.7062 12.6669 84.7062 14.7692Z" fill="#FA0C00"/>
<path d="M96.4116 15.5646C97.4911 15.5646 98.3789 15.5433 98.6844 15.4723C98.798 15.451 98.8405 15.4084 98.8618 15.316C98.9258 15.0746 98.9542 14.5703 98.9542 13.9524C98.9542 11.8501 97.69 9.28619 94.4229 9.28619C91.0849 9.28619 89.2311 12.0064 89.2311 15.0745C89.2311 17.7947 90.6658 20.6214 94.6856 20.6214C96.1914 20.6214 97.1644 20.38 98.0025 19.9822C98.0876 19.9396 98.1304 19.8685 98.1304 19.7407V17.9012C98.1304 17.7947 98.0664 17.7734 98.0025 17.816C97.1644 18.1711 96.2553 18.3487 95.2611 18.3487C93.0096 18.3487 91.9869 17.1058 91.9229 15.5646H96.4116ZM91.9229 13.6612C92.1005 12.5816 92.7824 11.4098 94.3093 11.4098C95.9925 11.4098 96.4329 12.8231 96.4329 13.4623C96.4329 13.4836 96.4329 13.576 96.4329 13.6399C96.3405 13.6612 96.0565 13.6612 95.2184 13.6612H91.9229Z" fill="#FA0C00"/>
</svg>
