<?xml version="1.0" encoding="UTF-8" standalone="no"?>
<svg xmlns="http://www.w3.org/2000/svg" width="1400" height="400" viewBox="0 0 1620 400" fill="currentColor">
  <path d="M195.781 397.656C267.969 397.656 322.531 379.062 359.375 341.875C396.406 304.688 414.922 253.75 414.922 189.062C414.922 125.156 396.406 74.9219 359.375 38.3594C322.531 1.79688 268.047 -16.3906 195.938 -16.3906H8.28125V397.656H195.781ZM126.406 292.031V89.0625H195.938C234.922 89.0625 263.75 98.9844 282.422 118.828C301.094 138.672 310.431 160.938 310.431 189.062C310.431 216.406 301.094 238.359 282.422 254.922C263.75 271.484 235 280.156 195.938 280.156L126.406 292.031Z"/>
  <path d="M703.35 210.938C703.35 211.719 703.035 217.109 702.404 227.109H468.975C471.787 244.453 480.787 258.516 495.975 269.297C511.162 280.078 530.694 285.469 554.569 285.469C583.975 285.469 605.538 276.328 619.257 258.047H694.6C681.006 288.359 659.179 312.969 629.1 331.875C599.022 350.781 561.084 360.234 516.24 360.234C478.506 360.234 444.804 352.031 415.085 335.625C385.631 319.219 362.638 296.641 346.162 267.891C329.685 239.141 321.475 206.328 321.475 169.453C321.475 132.578 329.763 99.7656 346.319 71.0156C362.95 42.2656 385.866 19.6875 415.085 3.28125C444.491 -13.125 478.272 -21.8281 516.397 -21.8281C553.35 -21.8281 585.788 -13.3594 613.663 3.75C641.631 20.8594 663.428 44.0625 679.022 73.3594C694.6 102.656 702.404 136.094 702.404 173.75C702.404 185.156 702.716 198.125 703.35 210.938ZM554.413 53.9844C534.1 53.9844 516.319 58.9844 501.084 68.9844C486.006 78.9844 476.084 92.8906 471.319 110.703H635.319C630.944 93.2812 621.319 79.375 606.319 68.9844C591.319 58.9844 574.413 53.9844 554.413 53.9844Z"/>
  <path d="M864.741 363.359L803.678 270.859L746.334 358.594V-21.8281H622.897V-21.8281V358.594H747.897V358.594L803.678 270.859L864.741 363.359L984.741 212.969V358.594H1099.59V-21.8281H984.741V212.969L864.741 363.359Z"/>
  <path d="M1278.69 210.938C1278.69 211.719 1278.38 217.109 1277.75 227.109H1044.32C1047.13 244.453 1056.13 258.516 1071.32 269.297C1086.5 280.078 1106.03 285.469 1129.91 285.469C1159.32 285.469 1180.88 276.328 1194.6 258.047H1269.94C1256.35 288.359 1234.52 312.969 1204.44 331.875C1174.37 350.781 1136.42 360.234 1091.58 360.234C1053.85 360.234 1020.15 352.031 990.431 335.625C960.978 319.219 937.978 296.641 921.509 267.891C905.04 239.141 896.823 206.328 896.823 169.453C896.823 132.578 905.118 99.7656 921.666 71.0156C938.306 42.2656 961.215 19.6875 990.431 3.28125C1019.84 -13.125 1053.62 -21.8281 1091.75 -21.8281C1128.69 -21.8281 1161.13 -13.3594 1189.01 3.75C1216.98 20.8594 1238.78 44.0625 1254.37 73.3594C1269.94 102.656 1277.75 136.094 1277.75 173.75C1277.75 185.156 1278.06 198.125 1278.69 210.938ZM1129.75 53.9844C1109.44 53.9844 1091.67 58.9844 1076.43 68.9844C1061.35 78.9844 1051.43 92.8906 1046.67 110.703H1210.67C1206.29 93.2812 1196.67 79.375 1181.67 68.9844C1166.67 58.9844 1149.75 53.9844 1129.75 53.9844Z"/>
  <path d="M1335.06 -16.3906V358.594H1443.75V213.359C1443.75 201.562 1446.56 192.344 1452.19 185.703C1457.97 178.984 1465.94 175.625 1476.09 175.625C1485.94 175.625 1494.04 178.984 1500.41 185.703C1506.78 192.266 1509.97 201.484 1509.97 213.359V358.594H1619.91V192.5C1619.91 163.75 1615.54 140.312 1606.56 122.188C1597.81 103.984 1585.31 90.4688 1569.59 81.5625C1553.91 72.6562 1535.94 68.2031 1515.77 68.2031C1485.47 68.2031 1462.03 79.2188 1445.47 101.172L1443.75 99.4531V-16.3906H1335.06Z"/>
</svg> 