<svg width="100" height="32" viewBox="0 0 100 32" fill="none" xmlns="http://www.w3.org/2000/svg">
<g clip-path="url(#clip0_6_7908)">
<path d="M52.5545 7.81931C52.5545 8.94081 51.6511 9.84424 50.5296 9.84424C49.4081 9.84424 48.5047 8.94081 48.5047 7.81931C48.5047 6.69782 49.377 5.79439 50.5296 5.79439C51.6823 5.82555 52.5545 6.72897 52.5545 7.81931ZM44.2056 11.9003C44.2056 12.0872 44.2056 12.3988 44.2056 12.3988C44.2056 12.3988 43.2399 11.1526 41.1838 11.1526C37.7882 11.1526 35.1402 13.7383 35.1402 17.3209C35.1402 20.8723 37.757 23.4891 41.1838 23.4891C43.271 23.4891 44.2056 22.2118 44.2056 22.2118V22.7414C44.2056 22.9907 44.3925 23.1776 44.6418 23.1776H47.1651V11.4642C47.1651 11.4642 44.8598 11.4642 44.6418 11.4642C44.3925 11.4642 44.2056 11.6822 44.2056 11.9003ZM44.2056 19.4081C43.7383 20.0935 42.8038 20.6854 41.6823 20.6854C39.6885 20.6854 38.162 19.4393 38.162 17.3209C38.162 15.2025 39.6885 13.9564 41.6823 13.9564C42.7726 13.9564 43.7695 14.5794 44.2056 15.2336V19.4081ZM49.0343 11.4642H52.0249V23.1776H49.0343V11.4642ZM93.7072 11.1526C91.6511 11.1526 90.6854 12.3988 90.6854 12.3988V5.82555H87.6947V23.1776C87.6947 23.1776 90 23.1776 90.2181 23.1776C90.4673 23.1776 90.6542 22.9595 90.6542 22.7414V22.2118C90.6542 22.2118 91.62 23.4891 93.676 23.4891C97.0717 23.4891 99.7197 20.8723 99.7197 17.3209C99.7197 13.7695 97.0717 11.1526 93.7072 11.1526ZM93.2087 20.6542C92.0561 20.6542 91.1527 20.0623 90.6854 19.3769V15.2025C91.1527 14.5794 92.1496 13.9252 93.2087 13.9252C95.2025 13.9252 96.729 15.1713 96.729 17.2897C96.729 19.4081 95.2025 20.6542 93.2087 20.6542ZM86.1371 16.2305V23.2087H83.1464V16.5732C83.1464 14.6417 82.5234 13.8629 80.8411 13.8629C79.9377 13.8629 79.0031 14.3302 78.4112 15.0156V23.1776H75.4206V11.4642H77.7882C78.0374 11.4642 78.2243 11.6822 78.2243 11.9003V12.3988C79.0966 11.4953 80.2492 11.1526 81.4019 11.1526C82.7103 11.1526 83.8006 11.5265 84.6729 12.2741C85.7321 13.1464 86.1371 14.2679 86.1371 16.2305ZM68.162 11.1526C66.1059 11.1526 65.1402 12.3988 65.1402 12.3988V5.82555H62.1496V23.1776C62.1496 23.1776 64.4548 23.1776 64.6729 23.1776C64.9221 23.1776 65.1091 22.9595 65.1091 22.7414V22.2118C65.1091 22.2118 66.0748 23.4891 68.1309 23.4891C71.5265 23.4891 74.1745 20.8723 74.1745 17.3209C74.2056 13.7695 71.5577 11.1526 68.162 11.1526ZM67.6636 20.6542C66.5109 20.6542 65.6075 20.0623 65.1402 19.3769V15.2025C65.6075 14.5794 66.6044 13.9252 67.6636 13.9252C69.6573 13.9252 71.1838 15.1713 71.1838 17.2897C71.1838 19.4081 69.6573 20.6542 67.6636 20.6542ZM59.5639 11.1526C60.4673 11.1526 60.9346 11.3084 60.9346 11.3084V14.081C60.9346 14.081 58.4424 13.2399 56.8848 15.0156V23.2087H53.8941V11.4642C53.8941 11.4642 56.1994 11.4642 56.4175 11.4642C56.6667 11.4642 56.8536 11.6822 56.8536 11.9003V12.3988C57.4144 11.7445 58.6293 11.1526 59.5639 11.1526ZM28.5047 22.1184C28.3489 21.7445 28.1932 21.3396 28.0374 20.9969C27.7882 20.4361 27.539 19.9065 27.3209 19.4081L27.2897 19.3769C25.1402 14.7041 22.8349 9.96885 20.405 5.29595L20.3115 5.10903C20.0623 4.64174 19.8131 4.1433 19.5639 3.64486C19.2524 3.08411 18.9408 2.49221 18.4424 1.93146C17.4455 0.685358 16.0125 0 14.486 0C12.9284 0 11.5265 0.685358 10.4985 1.86916C10.0312 2.42991 9.6885 3.02181 9.37697 3.58255C9.12775 4.081 8.87853 4.57944 8.62931 5.04673L8.53585 5.23364C6.13709 9.90654 3.80065 14.6417 1.65112 19.3146L1.61997 19.3769C1.4019 19.8754 1.15268 20.405 0.903458 20.9657C0.747695 21.3084 0.591932 21.6822 0.436169 22.0872C0.0311853 23.2399 -0.0934253 24.3302 0.0623379 25.4517C0.405016 27.7882 1.96265 29.7508 4.11217 30.6231C4.92214 30.9657 5.76326 31.1215 6.63554 31.1215C6.88476 31.1215 7.19628 31.0903 7.44551 31.0592C8.47354 30.9346 9.53273 30.5919 10.5608 30C11.838 29.2835 13.053 28.2555 14.4237 26.7601C15.7944 28.2555 17.0405 29.2835 18.2866 30C19.3147 30.5919 20.3739 30.9346 21.4019 31.0592C21.6511 31.0903 21.9626 31.1215 22.2119 31.1215C23.0841 31.1215 23.9564 30.9657 24.7352 30.6231C26.9159 29.7508 28.4424 27.757 28.7851 25.4517C29.0343 24.3614 28.9097 23.271 28.5047 22.1184ZM14.4549 23.7383C12.7726 21.6199 11.6823 19.6262 11.3084 17.9439C11.1527 17.2274 11.1215 16.6044 11.215 16.0436C11.2773 15.5452 11.4642 15.109 11.7134 14.7352C12.3053 13.8941 13.3022 13.3645 14.4549 13.3645C15.6075 13.3645 16.6355 13.8629 17.1963 14.7352C17.4455 15.109 17.6324 15.5452 17.6947 16.0436C17.7882 16.6044 17.757 17.2586 17.6013 17.9439C17.2274 19.595 16.1371 21.5888 14.4549 23.7383ZM26.8848 25.2025C26.6667 26.8224 25.5763 28.2243 24.0499 28.8474C23.3022 29.1589 22.4922 29.2523 21.6823 29.1589C20.9034 29.0654 20.1246 28.8162 19.3147 28.3489C18.1932 27.7259 17.0717 26.7601 15.7633 25.3271C17.8193 22.8037 19.0654 20.4984 19.5327 18.4424C19.7508 17.4766 19.782 16.6044 19.6885 15.7944C19.5639 15.0156 19.2835 14.2991 18.8474 13.676C17.8816 12.2741 16.2617 11.4642 14.4549 11.4642C12.648 11.4642 11.0281 12.3053 10.0623 13.676C9.62619 14.2991 9.34582 15.0156 9.22121 15.7944C9.0966 16.6044 9.12775 17.5078 9.37697 18.4424C9.84426 20.4984 11.1215 22.8349 13.1464 25.3583C11.8692 26.7913 10.7165 27.757 9.59504 28.3801C8.78507 28.8474 8.00625 29.0966 7.22744 29.19C6.38632 29.2835 5.57635 29.1589 4.85984 28.8785C3.33336 28.2555 2.24302 26.8536 2.02495 25.2336C1.9315 24.4548 1.9938 23.676 2.30533 22.8037C2.39879 22.4922 2.55455 22.1807 2.71031 21.8069C2.92838 21.3084 3.17759 20.7788 3.42681 20.2492L3.45797 20.1869C5.6075 15.5452 7.91279 10.81 10.3115 6.19938L10.405 6.01246C10.6542 5.54517 10.9034 5.04673 11.1527 4.57944C11.4019 4.081 11.6823 3.61371 12.0249 3.20872C12.6791 2.46106 13.5514 2.05607 14.5172 2.05607C15.4829 2.05607 16.3552 2.46106 17.0094 3.20872C17.352 3.61371 17.6324 4.081 17.8816 4.57944C18.1309 5.04673 18.3801 5.54517 18.6293 6.01246L18.7228 6.19938C21.0904 10.8411 23.3957 15.5763 25.5452 20.2181V20.2492C25.7944 20.7477 26.0125 21.3084 26.2617 21.8069C26.4175 22.1807 26.5732 22.4922 26.6667 22.8037C26.9159 23.6137 27.0094 24.3925 26.8848 25.2025Z" fill="#FF5A5F"/>
</g>
<defs>
<clipPath id="clip0_6_7908">
<rect width="100" height="31.1526" fill="white"/>
</clipPath>
</defs>
</svg>
